<svg width="120" height="120" viewBox="0 0 120 120" fill="none" xmlns="http://www.w3.org/2000/svg">
<rect width="120" height="120" rx="31" fill="#BF1E2E"/>
<path d="M63.6919 59.1018C63.7975 59.5212 63.8339 59.967 63.7843 60.4227C63.5598 62.513 61.6742 64.0321 59.5772 63.8075C57.3119 63.5632 55.7235 61.3705 56.2849 59.0886C56.7142 57.3384 58.3785 56.1033 60.1749 56.1958C60.5448 56.2189 60.8948 56.2816 61.2251 56.3972C61.3175 56.4236 61.4034 56.4633 61.4925 56.4996C62.5063 56.9322 63.2758 57.7842 63.6093 58.8211C63.6423 58.907 63.6687 59.006 63.6919 59.1018Z" fill="white"/>
<path d="M78.9914 61.2185C79.0013 61.0666 79.0046 60.918 79.0146 60.7661C79.0146 60.7529 79.0146 60.7298 79.0146 60.71C79.0212 60.5614 79.0212 60.4128 79.0212 60.2708C79.0278 59.9505 79.0212 59.6401 79.0146 59.3263C79.0079 59.1711 79.0013 59.0192 78.9881 58.8574C78.9716 58.5635 78.9452 58.2663 78.9122 57.9724C78.8626 57.4837 78.7933 56.9982 78.7041 56.5227C78.6513 56.2288 78.5886 55.9349 78.5192 55.6443C78.4895 55.4957 78.4466 55.3504 78.4069 55.2018C78.2517 54.6041 78.0701 54.0196 77.8522 53.4516C77.8026 53.3063 77.7465 53.1643 77.6936 53.0157C77.6375 52.877 77.5814 52.735 77.5219 52.593C77.4559 52.4576 77.3964 52.3156 77.337 52.1769C77.2115 51.8995 77.0761 51.6221 76.9374 51.3513C76.7327 50.9485 76.5081 50.5456 76.2704 50.1559C76.1911 50.0238 76.1118 49.8917 76.0293 49.7695C75.95 49.6375 75.8642 49.512 75.7783 49.3832C75.6925 49.2544 75.6066 49.1322 75.5207 49.01C75.4316 48.8812 75.3457 48.759 75.25 48.6402C74.7513 47.9632 74.2097 47.3292 73.6252 46.7314C73.5394 46.6423 73.4502 46.5531 73.3578 46.4673C73.2389 46.3484 73.12 46.2295 72.9945 46.1172C72.9152 46.0413 72.8393 45.9719 72.7534 45.896C72.6742 45.8266 72.5949 45.754 72.5124 45.678C72.4199 45.6021 72.3274 45.5228 72.2383 45.4469C72.1128 45.3379 71.9873 45.2322 71.8585 45.1364C71.8123 45.0968 71.776 45.0638 71.7363 45.0374C71.1254 44.5618 70.4881 44.116 69.8177 43.7165C69.8012 43.7 69.7748 43.6867 69.7517 43.6801C69.5535 43.5613 69.3554 43.4424 69.1473 43.3334C68.9459 43.2178 68.7412 43.1121 68.5298 43.0098C68.5166 43.0032 68.5001 42.9966 68.4869 42.99C68.2921 42.8909 68.1005 42.7951 67.8991 42.7027C67.6976 42.6135 67.4962 42.5243 67.2882 42.4385C67.275 42.4286 67.2617 42.4253 67.2485 42.4253C67.0306 42.3295 66.8126 42.247 66.5881 42.1644C66.3767 42.0884 66.1588 42.0092 65.9342 41.9365L65.9177 41.9299C65.6866 41.854 65.4587 41.7813 65.2242 41.7219C64.9964 41.6525 64.7586 41.5898 64.5242 41.5304C53.8776 38.915 43.1221 45.8035 41.2068 56.7935C39.5919 66.063 45.1629 75.2631 54.122 78.1361C64.7388 81.5441 75.8378 75.2103 78.4565 64.5704C78.5357 64.25 78.6051 63.9264 78.6678 63.6094C78.6975 63.4509 78.7306 63.2924 78.7504 63.1273C78.7801 62.9721 78.8032 62.8135 78.8263 62.655C78.8924 62.1762 78.9419 61.6941 78.9716 61.2251L78.9914 61.2185ZM70.8678 58.8442C70.6796 59.0291 70.4683 59.1612 70.2503 59.257C69.7087 59.4948 69.1936 59.8679 68.7874 60.3533C68.3845 60.8289 68.0972 61.4002 67.9552 61.9748C67.8165 62.5494 67.8 63.19 67.9387 63.7976C68.0708 64.4085 68.3548 64.9765 68.7247 65.4422C68.9327 65.6964 69.0879 66.0267 69.1606 66.38C69.2266 66.7433 69.2035 67.123 69.0879 67.4698C69.0285 67.6415 68.9591 67.8066 68.8633 67.9552C68.7709 68.0972 68.6652 68.2227 68.5463 68.335C68.3053 68.5628 67.9948 68.7643 67.6448 68.86C67.3212 68.9558 66.9645 68.969 66.6343 68.9062C66.3041 68.8435 66.0069 68.7015 65.7658 68.5232C65.2936 68.1731 64.7058 67.9156 64.0883 67.8C63.4773 67.691 62.8367 67.7339 62.2687 67.8991C61.6974 68.0609 61.136 68.3746 60.6803 68.7907C60.2147 69.2101 59.8646 69.745 59.6467 70.2965C59.541 70.5739 59.3627 70.8579 59.1183 71.0791C58.874 71.3103 58.5668 71.4886 58.2432 71.5844C57.8899 71.6901 57.5266 71.6868 57.203 71.624C57.0445 71.5877 56.8893 71.5349 56.7275 71.4622C56.5723 71.3962 56.4237 71.3004 56.2784 71.1782C56.001 70.9504 55.7764 70.6366 55.641 70.2965C55.5089 69.9597 55.4693 69.5997 55.5089 69.2761C55.5783 68.685 55.5089 68.0477 55.2943 67.4631C55.0862 66.8786 54.7296 66.3404 54.3003 65.9342C53.8743 65.5181 53.3261 65.1846 52.735 64.9997C52.134 64.8114 51.4967 64.7685 50.9122 64.861C50.6744 64.8973 50.4234 64.894 50.1658 64.8444C49.9083 64.7949 49.6507 64.6925 49.4261 64.5505C49.195 64.4019 49.0034 64.2104 48.8449 64.0024C48.693 63.791 48.5841 63.5599 48.5114 63.3353C48.4487 63.1041 48.4189 62.8532 48.4355 62.5923C48.4553 62.3314 48.5213 62.0639 48.6303 61.8229C48.7525 61.5686 48.911 61.3506 49.1025 61.1723C49.2874 60.9973 49.5054 60.8586 49.72 60.7595C50.2682 60.5251 50.7834 60.1486 51.1796 59.6731C51.5825 59.1942 51.8698 58.6196 52.0118 58.0484C52.1538 57.4738 52.167 56.8331 52.0283 56.2255C51.8962 55.6146 51.6122 55.04 51.2424 54.5777C51.0938 54.396 50.9683 54.1748 50.8824 53.9271C50.7966 53.6794 50.757 53.4087 50.7669 53.1346C50.7801 52.8638 50.8428 52.5996 50.9485 52.3585C51.0608 52.1175 51.1995 51.9094 51.3613 51.7344C51.533 51.566 51.7344 51.4141 51.9689 51.3018C52.2034 51.1862 52.4642 51.1037 52.7317 51.0839C53.0058 51.0607 53.2733 51.0905 53.5276 51.1664C53.7785 51.2358 54.0031 51.3546 54.1946 51.4966C54.6669 51.8467 55.2547 52.1076 55.8722 52.2198C56.4864 52.3255 57.1237 52.2859 57.6917 52.1208C58.2597 51.9557 58.8244 51.6518 59.2801 51.2292C59.7458 50.8032 60.0991 50.2748 60.3137 49.7233C60.3996 49.5021 60.5284 49.2775 60.7034 49.0827C60.8751 48.8878 61.0865 48.7161 61.3275 48.5906C61.5686 48.4651 61.8328 48.3892 62.0937 48.3628C62.3546 48.3364 62.6055 48.3529 62.8367 48.4057C63.0645 48.4651 63.299 48.5708 63.5203 48.7128C63.7382 48.8581 63.9363 49.0463 64.0916 49.2742C64.2435 49.4955 64.3524 49.7464 64.4119 49.9941C64.4746 50.2484 64.4878 50.506 64.4581 50.7437C64.4482 50.8593 64.4416 50.9782 64.435 51.0971C64.4284 51.4966 64.4746 51.8962 64.5935 52.2925C64.6199 52.3783 64.643 52.4675 64.6761 52.5501C64.8841 53.1346 65.2407 53.6728 65.67 54.0823C66.0993 54.4918 66.6442 54.822 67.2353 55.0136C67.833 55.2018 68.4737 55.2414 69.0582 55.1523C69.2959 55.1192 69.5502 55.1159 69.8045 55.1688C70.0621 55.2216 70.3197 55.3174 70.5442 55.4627C70.7754 55.6047 70.9735 55.7995 71.1254 56.0108C71.2773 56.2189 71.3863 56.4501 71.4589 56.6779C71.5217 56.9058 71.5514 57.1567 71.5349 57.4209C71.525 57.5728 71.4953 57.7181 71.4556 57.8667C71.4259 57.979 71.383 58.0847 71.3368 58.1937C71.2146 58.438 71.0627 58.6527 70.8645 58.831L70.8678 58.8442Z" fill="white"/>
<path d="M111.743 66.5748C111.598 67.6876 111.423 68.7939 111.212 69.8969L110.492 70.0289L109.785 70.1313L109.148 70.2007L108.6 70.2337L108.141 70.2436L107.758 70.2304L107.348 70.2007L107.246 70.1808L106.919 70.0653L106.608 69.9662L106.311 69.8869L106.034 69.8242L105.773 69.7747L105.532 69.7416L105.307 69.7218H105.106H104.918L104.756 69.7383L104.61 69.7648L104.488 69.8044L104.386 69.8506L104.307 69.9068L104.251 69.9662L104.211 70.0355L104.201 70.0752L104.036 70.7653L103.772 71.7957L103.481 72.8194L103.276 73.4963L103.263 73.5294V73.6053L103.28 73.6912L103.323 73.777L103.385 73.8695L103.474 73.962L103.583 74.061L103.716 74.1535L103.874 74.2526L104.052 74.3516L104.257 74.4441L104.482 74.5366L104.733 74.6257L105.003 74.705L105.297 74.7842L105.618 74.8569L105.961 74.9196L106.06 74.9526L106.43 75.131L106.76 75.3126L107.157 75.5537L107.612 75.8608L108.131 76.2339L108.689 76.6764L109.24 77.152C108.87 78.212 108.468 79.2588 108.028 80.2924L107.302 80.2759L106.589 80.2297L105.955 80.1603L105.41 80.0745L104.957 79.9886L104.587 79.8995L104.191 79.7839L104.092 79.7409L103.798 79.5626L103.514 79.4008L103.243 79.2588L102.982 79.1366L102.741 79.0343L102.51 78.955L102.292 78.8857L102.097 78.8361L101.916 78.8064L101.754 78.7866H101.605L101.477 78.7965L101.371 78.8229L101.282 78.8625L101.209 78.9088L101.16 78.9682L101.143 79.0012L100.843 79.6386L100.37 80.5929L99.8717 81.5341L99.5316 82.1549L99.5151 82.1879L99.4986 82.2606V82.3464L99.5184 82.4389L99.5646 82.5446L99.6273 82.6502L99.7165 82.7691L99.8255 82.8913L99.9576 83.0201L100.116 83.1522L100.294 83.2843L100.496 83.4263L100.72 83.5617L100.971 83.7037L101.242 83.8391L101.539 83.9745L101.86 84.1099L101.952 84.166L102.272 84.417L102.563 84.6679L102.9 84.9817L103.286 85.3779L103.712 85.8502L104.168 86.4016L104.607 86.9795C104.029 87.9405 103.415 88.8783 102.774 89.7964L102.064 89.6313L101.374 89.4364L100.77 89.235L100.251 89.0435L99.8255 88.8651L99.4854 88.7L99.1254 88.5085L99.0362 88.4457L98.7853 88.208L98.5442 87.99L98.3064 87.7985L98.0819 87.6235L97.8606 87.4749L97.6559 87.3428L97.4611 87.2371L97.2794 87.148L97.1077 87.0753L96.9492 87.0258L96.8039 86.9927L96.6751 86.9795H96.5661L96.4737 86.996L96.3944 87.0258L96.335 87.0753L96.3085 87.1017L95.8793 87.6664L95.2188 88.4986L94.5385 89.3142L94.0762 89.8492L94.0564 89.8756L94.0234 89.9483L94.0069 90.0275V90.1266L94.0333 90.2356L94.0729 90.3545L94.1357 90.4899L94.2149 90.6319L94.3173 90.7838L94.4461 90.9456L94.5914 91.1173L94.7631 91.2923L94.9546 91.4739L95.1726 91.6622L95.4103 91.8537L95.6712 92.0485L95.9618 92.25L96.0378 92.3226L96.302 92.633L96.5331 92.9401L96.794 93.3199L97.0912 93.7822L97.4115 94.3337L97.7384 94.9677L98.0488 95.6282C97.2827 96.4439 96.4869 97.2364 95.6679 98.0025L95.0074 97.6921L94.3767 97.3553L93.8252 97.035L93.3629 96.7378L92.9832 96.4736L92.6827 96.2424L92.3689 95.9782L92.2963 95.9023L92.1014 95.6117L91.9066 95.3508L91.7151 95.1097L91.5335 94.8984L91.3518 94.7036L91.1768 94.5318L91.0051 94.3865L90.8433 94.2578L90.6914 94.1554L90.5494 94.0695L90.4173 94.0101L90.2951 93.9672L90.1894 93.9407H90.0904L90.0045 93.9539L89.9352 93.987L89.9054 94.0134L89.3705 94.4724L88.5482 95.1527L87.716 95.8065L87.1513 96.2358L87.1216 96.2556L87.0754 96.3151L87.0424 96.3943L87.0258 96.4868V96.6024L87.0391 96.7312L87.0721 96.8732L87.1216 97.0317L87.191 97.2034L87.2801 97.385L87.3891 97.5798L87.5179 97.7879L87.6665 98.0058L87.8382 98.237L88.033 98.4748L88.2444 98.7224L88.4822 98.9734L88.5449 99.0593L88.7364 99.4192L88.8982 99.7626L89.0766 100.189L89.2681 100.707L89.4629 101.315L89.6545 101.998L89.8196 102.708C88.9015 103.352 87.9571 103.96 86.9994 104.538L86.4182 104.092L85.8701 103.636L85.3978 103.207L85.0049 102.824L84.6911 102.484L84.4402 102.2L84.1892 101.873L84.1397 101.784L84.0043 101.46L83.8689 101.166L83.7335 100.889L83.5981 100.641L83.4561 100.41L83.3207 100.208L83.1886 100.03L83.0565 99.8716L82.9277 99.7362L82.8055 99.6273L82.69 99.5414L82.581 99.472L82.4786 99.4291L82.3862 99.4027H82.3003L82.2243 99.4192L82.1913 99.4357L81.5738 99.7759L80.6293 100.268L79.675 100.737L79.031 101.037L78.998 101.054L78.9386 101.1L78.8923 101.173L78.8527 101.262L78.8263 101.368L78.8164 101.496V101.645L78.8329 101.807L78.8659 101.988L78.9121 102.19L78.9815 102.401L79.0608 102.632L79.1631 102.873L79.282 103.134L79.424 103.405L79.5825 103.689L79.7641 103.986L79.8071 104.085L79.916 104.482L80.0019 104.851L80.0911 105.304L80.167 105.849L80.2364 106.486L80.2793 107.196L80.2958 107.929C79.2622 108.362 78.2154 108.761 77.152 109.128L76.6798 108.57L76.2373 108.012L75.8641 107.493L75.5636 107.034L75.3259 106.638L75.1443 106.308L74.9659 105.938L74.9329 105.836L74.8702 105.495L74.7975 105.175L74.7216 104.878L74.6423 104.607L74.5531 104.356L74.464 104.132L74.3715 103.927L74.2725 103.748L74.1734 103.59L74.0809 103.458L73.9818 103.349L73.8894 103.26L73.8002 103.197L73.7111 103.154L73.6318 103.134H73.5559L73.5162 103.147L72.8393 103.352L71.8156 103.636L70.7819 103.897L70.0918 104.059L70.0587 104.069L69.9894 104.108L69.9267 104.165L69.8705 104.244L69.8243 104.346L69.7913 104.468L69.7615 104.614L69.745 104.776L69.7351 104.964L69.745 105.165L69.7648 105.39L69.7946 105.631L69.8441 105.892L69.9068 106.169L69.9828 106.466L70.0819 106.777L70.1974 107.104L70.2172 107.209L70.247 107.619L70.2569 107.999L70.2437 108.461L70.2106 109.009L70.1413 109.643L70.0356 110.35L69.9002 111.07C68.7973 111.278 67.691 111.453 66.5781 111.588L66.2281 110.944L65.9144 110.307L65.6535 109.719L65.4521 109.207L65.3002 108.768L65.1945 108.408L65.0954 108.008L65.0822 107.903L65.0921 107.559V107.232L65.0756 106.925L65.0492 106.641L65.0162 106.38L64.9732 106.139L64.927 105.921L64.8709 105.72L64.8081 105.548L64.7388 105.396L64.6694 105.268L64.5935 105.162L64.5208 105.083L64.4449 105.023L64.3689 104.984L64.293 104.97H64.2533L63.5466 105.03L62.4866 105.099L61.4233 105.142L60.7133 105.155H60.6803L60.6043 105.175L60.5317 105.218L60.4623 105.287L60.393 105.377L60.3302 105.492L60.2741 105.624L60.2246 105.783L60.1783 105.961L60.1453 106.162L60.1156 106.387L60.0991 106.628V106.892V107.176L60.1156 107.483L60.1453 107.81L60.1882 108.154V108.259L60.1288 108.662L60.0561 109.035L59.9505 109.481L59.8019 110.013L59.607 110.621L59.3561 111.288L59.0754 111.961C57.9526 111.935 56.8331 111.875 55.7136 111.78L55.5056 111.083L55.3306 110.389L55.1985 109.765L55.1093 109.22L55.0532 108.765L55.0202 108.385L55.007 107.972L55.0202 107.87L55.0994 107.53L55.1622 107.209L55.2117 106.909L55.2447 106.625L55.2645 106.361L55.2744 106.12V105.895L55.2579 105.69L55.2315 105.509L55.1985 105.347L55.1589 105.211L55.1093 105.093L55.0499 104.993L54.9904 104.921L54.9211 104.871L54.8484 104.842L54.8088 104.832L54.1054 104.742L53.0553 104.591L52.0085 104.409L51.3117 104.277L51.2787 104.267H51.1994L51.1235 104.3L51.0376 104.35L50.9518 104.422L50.8725 104.521L50.7866 104.64L50.7008 104.785L50.6215 104.951L50.5456 105.139L50.4729 105.35L50.4036 105.585L50.3441 105.845L50.288 106.123L50.2418 106.423L50.2021 106.75L50.1724 107.094L50.146 107.199L50.004 107.582L49.8587 107.932L49.6573 108.349L49.403 108.837L49.0827 109.389L48.6996 109.993L48.2835 110.588C47.1905 110.333 46.1106 110.039 45.0374 109.712L44.9779 108.986L44.9515 108.276V107.639L44.9779 107.087L45.0176 106.628L45.0638 106.255L45.1398 105.852L45.1695 105.75L45.3181 105.436L45.4502 105.139L45.5591 104.855L45.6516 104.584L45.7276 104.333L45.787 104.095L45.8299 103.874L45.8596 103.673L45.8729 103.491V103.326L45.8596 103.181L45.8332 103.052L45.8002 102.946L45.754 102.86L45.6978 102.797L45.6351 102.755L45.6021 102.741L44.935 102.507L43.941 102.134L42.9536 101.737L42.2998 101.467L42.2668 101.453L42.1908 101.44L42.105 101.45L42.0158 101.483L41.9167 101.539L41.8144 101.615L41.7087 101.714L41.5997 101.836L41.4841 101.982L41.3685 102.154L41.253 102.345L41.1374 102.563L41.0218 102.801L40.9128 103.065L40.8039 103.349L40.6982 103.659L40.5991 103.99L40.5529 104.089L40.3349 104.432L40.117 104.746L39.8396 105.112L39.4862 105.538L39.057 106.011L38.5583 106.522L38.0266 107.021C37.0095 106.546 36.0156 106.034 35.0315 105.489L35.1239 104.766L35.2461 104.062L35.3782 103.438L35.5202 102.903L35.6523 102.464L35.7811 102.104L35.933 101.724L35.9891 101.632L36.1972 101.361L36.3887 101.093L36.5604 100.839L36.7057 100.598L36.8345 100.364L36.9402 100.142L37.0294 99.9377L37.0987 99.7461L37.1548 99.5678L37.1879 99.406L37.2044 99.2607V99.1319L37.1945 99.0229L37.1647 98.9305L37.1251 98.8578L37.069 98.8017L37.0393 98.7819L36.4349 98.412L35.5367 97.8407L34.6517 97.2496L34.0705 96.8467L34.0408 96.8269L33.9681 96.8005L33.8823 96.7906L33.7898 96.8038L33.6808 96.8368L33.5653 96.893L33.4431 96.9656L33.3077 97.0647L33.1657 97.1836L33.0171 97.3256L32.8652 97.4907L32.7067 97.6789L32.5482 97.887L32.383 98.1214L32.2179 98.3757L32.0528 98.6564L31.8811 98.9635L31.8184 99.0494L31.5377 99.3433L31.257 99.6041L30.9069 99.9047L30.4776 100.245L29.9592 100.618L29.3648 101.014L28.7406 101.394C27.8523 100.714 26.9805 100.007 26.1318 99.2706L26.3729 98.587L26.6371 97.9233L26.9013 97.3421L27.1423 96.85L27.3669 96.4472L27.5617 96.1235L27.7962 95.7834L27.8655 95.7042L28.1297 95.4796L28.3708 95.2583L28.5887 95.047L28.7836 94.8389L28.9553 94.6375L29.1072 94.4427L29.236 94.2611L29.345 94.0893L29.4308 93.9275L29.5002 93.7756L29.5464 93.6402L29.5761 93.5114L29.5893 93.4025L29.5794 93.3034L29.553 93.2241L29.5134 93.1614L29.487 93.135L28.9685 92.6495L28.2123 91.8999L27.4726 91.1371L26.9871 90.6219L26.9607 90.5955L26.8914 90.5526L26.8121 90.5262L26.713 90.5163L26.6041 90.5295L26.4819 90.5592L26.3399 90.6054L26.1913 90.6682L26.0295 90.7573L25.8544 90.863L25.6728 90.9918L25.478 91.1437L25.2765 91.3154L25.0685 91.5103L24.8506 91.7282L24.6293 91.966L24.4047 92.2302L24.3255 92.2995L23.9854 92.5307L23.6617 92.7255L23.2589 92.95L22.7602 93.1911L22.179 93.452L21.5153 93.7129L20.8251 93.9539C20.092 93.102 19.3919 92.2302 18.7149 91.3385L19.0947 90.7144L19.491 90.1233L19.8707 89.6048L20.2142 89.1755L20.5147 88.8255L20.7755 88.5481L21.0727 88.2674L21.1586 88.2047L21.4591 88.0396L21.7431 87.8745L21.9974 87.7093L22.2318 87.5475L22.4432 87.3857L22.6314 87.2272L22.7932 87.0753L22.9385 86.93L23.0574 86.788L23.1565 86.6526L23.2291 86.5304L23.2853 86.4148L23.3183 86.3092L23.3315 86.2101V86.1242L23.2985 86.0516L23.282 86.0219L22.8791 85.4407L22.2913 84.5524L21.72 83.6541L21.36 83.0465L21.3402 83.0168L21.2841 82.9607L21.2081 82.921L21.1157 82.8913L21.0067 82.8781H20.8779L20.7326 82.8979L20.5708 82.9309L20.3925 82.9805L20.2009 83.0498L19.9962 83.139L19.775 83.2447L19.5405 83.3734L19.2994 83.5187L19.0451 83.6839L18.7777 83.8754L18.5003 84.0834L18.4078 84.133L18.028 84.2849L17.6681 84.4137L17.2289 84.5458L16.6939 84.6811L16.0698 84.8132L15.3664 84.9321L14.6399 85.0213C14.1049 84.0372 13.5931 83.0399 13.1209 82.0228L13.6228 81.4945L14.1347 80.9958L14.6102 80.5665L15.0362 80.2165L15.4027 79.9391L15.7165 79.7211L16.0665 79.5032L16.159 79.4602L16.4958 79.3579L16.8062 79.2555L17.0902 79.1498L17.3544 79.0409L17.5921 78.9253L17.8101 78.8097L18.0016 78.6941L18.1733 78.5785L18.3186 78.4696L18.4408 78.3606L18.5399 78.2549L18.6192 78.1525L18.6753 78.0535L18.705 77.9643L18.7182 77.8785L18.705 77.8025L18.6918 77.7695L18.421 77.1156L18.028 76.1282L17.6615 75.1277L17.427 74.4606L17.4138 74.421L17.3709 74.3582L17.3081 74.3021L17.2223 74.2592L17.1166 74.2195L16.9878 74.1931L16.8425 74.1799H16.6774L16.4958 74.1931L16.2943 74.2228L16.0731 74.2658L15.8353 74.3252L15.5811 74.3979L15.3136 74.4903L15.0296 74.5993L14.7291 74.7281L14.4154 74.8767L14.3163 74.9097L13.9134 74.9791L13.5336 75.0253L13.0746 75.0649L12.5265 75.0847H11.8891L11.1758 75.055L10.4493 74.9956C10.1257 73.919 9.8384 72.8392 9.58742 71.7461L10.1884 71.33L10.7928 70.9503L11.3442 70.63L11.833 70.3757L12.2491 70.1808L12.6024 70.0355L12.9855 69.8935L13.0911 69.8737L13.4346 69.8473L13.7582 69.8077L14.0653 69.7615L14.3427 69.7053L14.6036 69.6459L14.838 69.5765L15.0494 69.5039L15.2409 69.4279L15.406 69.352L15.548 69.2661L15.6702 69.1869L15.7627 69.101L15.8386 69.0151L15.8882 68.9359L15.9146 68.8566L15.9245 68.7807L15.9146 68.7411L15.7825 68.0476L15.6075 66.9975L15.4556 65.9473L15.3697 65.2439L15.3598 65.2043L15.3301 65.1317L15.2806 65.0623L15.2079 64.9996L15.1154 64.9434L14.9966 64.8939L14.8546 64.851L14.6927 64.8179L14.5111 64.7915L14.3064 64.775H13.8375L13.5733 64.8014L13.2893 64.8345L12.9888 64.884L12.6684 64.9467L12.3316 65.026L12.2259 65.0359L11.8165 65.0194L11.4334 64.9897L10.9777 64.9302L10.4328 64.8378L9.80868 64.7057L9.1185 64.5273L8.42172 64.316C8.32925 63.2031 8.27312 62.0771 8.25 60.9609L8.92367 60.6802L9.59733 60.4325L10.2049 60.2377L10.7333 60.0891L11.1857 59.9867L11.5589 59.9141L11.9618 59.8579H12.0674L12.4109 59.9042L12.7378 59.9339L13.0383 59.9504L13.3289 59.9603L13.5931 59.9504L13.8342 59.9339L14.0554 59.9075L14.2601 59.8744L14.4385 59.8282L14.597 59.782L14.7291 59.7225L14.8447 59.6631L14.9338 59.5937L15.0032 59.5244L15.0461 59.4484L15.0659 59.3758V59.3362L15.0824 58.6295L15.1286 57.5661L15.198 56.5061L15.2607 55.7994V55.7598L15.2475 55.6838L15.2145 55.6079L15.1551 55.5319L15.0692 55.456L14.9668 55.3833L14.838 55.3107L14.6861 55.2413L14.5111 55.1819L14.3163 55.1225L14.0983 55.0729L13.8606 55.03L13.5964 54.997L13.3124 54.9706L13.0053 54.9573H12.6784H12.3349L12.2292 54.9441L11.833 54.8451L11.4664 54.7361L11.0338 54.5842L10.5187 54.3827L9.93746 54.1186L9.30012 53.8048L8.66278 53.4515C8.80478 52.3353 8.98311 51.2324 9.19445 50.1294L9.90774 49.9973L10.6144 49.895L11.2518 49.8256L11.7999 49.7959L12.259 49.786L12.642 49.7959L13.0515 49.8256L13.1539 49.8454L13.4808 49.961L13.7945 50.0601L14.0884 50.1393L14.3658 50.2021L14.6267 50.2516L14.8678 50.2846L15.0923 50.3044H15.2971H15.4787L15.6438 50.2879L15.7858 50.2615L15.908 50.2219L16.0104 50.1756L16.0896 50.1195L16.1491 50.0601L16.1821 49.9907L16.1953 49.9511L16.3571 49.2609L16.6213 48.2306L16.9119 47.2102L17.1199 46.5299L17.1298 46.4969V46.421L17.1133 46.3351L17.0704 46.2492L17.0076 46.1568L16.9185 46.0643L16.8128 45.9718L16.6774 45.8728L16.5189 45.7737L16.3406 45.6746L16.1358 45.5822L15.9113 45.4897L15.6636 45.4039L15.3862 45.318L15.0923 45.2387L14.772 45.1661L14.4319 45.1033L14.3295 45.0703L13.9629 44.892L13.6261 44.7104L13.2331 44.4726L12.7741 44.1655L12.2557 43.7857L11.6976 43.3432L11.1461 42.8677C11.516 41.8077 11.9188 40.7609 12.358 39.7272L13.0845 39.7471L13.7978 39.7933L14.4319 39.8626L14.9767 39.9419L15.4325 40.0277L15.8023 40.1169L16.1953 40.2325L16.2943 40.2754L16.5916 40.457L16.8756 40.6155L17.143 40.7575L17.4039 40.8797L17.6516 40.9821L17.8761 41.068L18.0941 41.1307L18.2889 41.1802L18.4706 41.2133L18.6357 41.2298H18.781L18.9098 41.2199L19.0187 41.1934L19.1079 41.1604L19.1772 41.1109L19.2268 41.0514L19.2433 41.0217L19.5438 40.3778L20.016 39.4234L20.5147 38.4823L20.8548 37.8615L20.8713 37.8284L20.8911 37.7558V37.6699L20.8647 37.5775L20.8218 37.4751L20.7524 37.3661L20.6633 37.2472L20.5543 37.125L20.4222 36.9963L20.2703 36.8642L20.092 36.7321L19.8872 36.5967L19.6627 36.4547L19.4117 36.3127L19.1409 36.1773L18.8437 36.0419L18.5234 35.9065L18.4342 35.8504L18.1106 35.5994L17.82 35.3517L17.4832 35.0314L17.1001 34.6384L16.6708 34.1629L16.2184 33.6114L15.7759 33.0335C16.3571 32.0726 16.9713 31.1347 17.612 30.2167L18.3219 30.3884L19.0055 30.5799L19.6131 30.7814L20.1283 30.9729L20.5543 31.1545L20.8977 31.3163L21.2544 31.5079L21.3435 31.5706L21.5945 31.8084L21.8422 32.0263L22.0766 32.2179L22.3078 32.3929L22.5257 32.5415L22.7338 32.6736L22.9286 32.7825L23.1103 32.8717L23.282 32.9411L23.4405 32.9906L23.5825 33.0236L23.7113 33.0401H23.8202L23.9193 33.0203L23.9953 32.9906L24.0547 32.9444L24.0811 32.9146L24.5104 32.3499L25.1709 31.5211L25.8511 30.6988L26.3135 30.1671L26.3399 30.1374L26.3729 30.0681L26.3861 29.9822V29.8831L26.3663 29.7742L26.3234 29.6553L26.2606 29.5232L26.1814 29.3779L26.079 29.226L25.9502 29.0642L25.8049 28.8991L25.6332 28.7207L25.4417 28.5391L25.2237 28.3509L24.9859 28.1594L24.7251 27.9645L24.4411 27.7697L24.3618 27.697L24.1009 27.3833L23.8698 27.0828L23.6056 26.6997L23.3117 26.2374L22.9914 25.6859L22.6611 25.0519L22.3507 24.3915C23.1202 23.5758 23.9127 22.7832 24.7317 22.0171L25.3921 22.3308L26.0229 22.6611L26.5743 22.9814L27.0367 23.2786L27.4164 23.5428L27.7169 23.7739L28.0306 24.0381L28.1033 24.1174L28.2981 24.4014L28.493 24.6655L28.6845 24.9033L28.8727 25.1213L29.051 25.3128L29.2294 25.4845L29.3945 25.6298L29.5563 25.7586L29.7082 25.861L29.8502 25.9468L29.9823 26.0096L30.1045 26.0492L30.2135 26.0756H30.3125L30.3918 26.0624L30.4611 26.0294L30.4908 26.003L31.0258 25.544L31.8481 24.867L32.6869 24.2065L33.2482 23.7772L33.278 23.7574L33.3242 23.698L33.3572 23.6187L33.3737 23.5263V23.4173L33.3605 23.2885L33.3275 23.1432L33.278 22.9847L33.2086 22.813L33.1195 22.6313L33.0138 22.4365L32.8817 22.2285L32.7331 22.0105L32.5614 21.7794L32.3665 21.5416L32.1552 21.3005L31.9174 21.0462L31.8547 20.9604L31.6632 20.6004L31.5013 20.257L31.323 19.831L31.1315 19.3126L30.9367 18.7049L30.7451 18.0214L30.58 17.3114C31.5046 16.674 32.4425 16.0598 33.4035 15.4852L33.9814 15.9277L34.5295 16.3834L35.0018 16.8127L35.398 17.1991L35.7117 17.5359L35.9594 17.8265L36.2104 18.1501L36.2665 18.2393L36.3986 18.5629L36.534 18.8601L36.6694 19.1309L36.8114 19.3819L36.9468 19.6065L37.0822 19.8079L37.2143 19.9895L37.3464 20.1414L37.4752 20.2768L37.5973 20.3858L37.7129 20.475L37.8219 20.5377L37.9243 20.5839L38.0167 20.6037H38.1026L38.1785 20.5872L38.2116 20.5707L38.8324 20.2306L39.7736 19.7418L40.7312 19.2696L41.3685 18.9724L41.4016 18.9559L41.461 18.9064L41.5105 18.837L41.5436 18.7446L41.57 18.6389L41.5832 18.5101V18.3615L41.5634 18.1997L41.5337 18.0181L41.4841 17.8232L41.4214 17.6053L41.3355 17.3741L41.2332 17.133L41.1143 16.8722L40.9723 16.6014L40.8138 16.3174L40.6321 16.0202L40.5925 15.9211L40.4769 15.5281L40.3911 15.155L40.3052 14.7026L40.226 14.1577L40.1566 13.5204L40.1137 12.8104L40.0972 12.0773C41.1308 11.648 42.1809 11.2484 43.2409 10.8818L43.7132 11.4333L44.1557 11.9947L44.5288 12.5099L44.8359 12.9689L45.0737 13.3651L45.2553 13.702L45.4303 14.0685L45.4634 14.1709L45.5261 14.511L45.5988 14.8314L45.6747 15.1286L45.7606 15.3994L45.8464 15.6503L45.9389 15.8749L46.0314 16.0796L46.1238 16.2579L46.2229 16.4165L46.322 16.5518L46.4144 16.6608L46.5069 16.7467L46.5994 16.8094L46.6852 16.8524L46.7711 16.8722H46.847L46.88 16.859L47.5603 16.6542L48.5807 16.3702L49.6143 16.1093L50.3045 15.9475L50.3375 15.9376L50.4069 15.898L50.4696 15.8419L50.5258 15.7626L50.572 15.6602L50.6116 15.538L50.638 15.396L50.6546 15.2309L50.6645 15.0493L50.6546 14.8446L50.638 14.62L50.605 14.3789L50.5588 14.1181L50.496 13.8407L50.4168 13.5435L50.3177 13.2331L50.2021 12.9061L50.1823 12.8005L50.1526 12.391V12.0112L50.1559 11.5522L50.1889 11.0007L50.2583 10.3667L50.364 9.65999L50.4993 8.9467C51.6023 8.73535 52.7119 8.56364 53.8214 8.42494L54.1715 9.06888L54.4852 9.70622L54.7461 10.294L54.9508 10.8059L55.0994 11.2451L55.2084 11.605L55.3075 12.0046L55.3174 12.1103L55.3075 12.4537V12.7806L55.324 13.0878L55.3504 13.3718L55.3834 13.6359L55.4263 13.8737L55.4759 14.095L55.532 14.2898L55.5915 14.4648L55.6608 14.6134L55.7335 14.7422L55.8061 14.8479L55.8821 14.9271L55.958 14.9866L56.034 15.0262L56.1066 15.0394H56.1462L56.8529 14.98L57.9163 14.9106L58.9763 14.871L59.6863 14.8545H59.7259L59.7986 14.8347L59.8712 14.7917L59.9439 14.7224L60.0066 14.6332L60.0693 14.5242L60.1288 14.3889L60.1783 14.2303L60.2213 14.052L60.2543 13.8506L60.284 13.6293L60.3005 13.3817L60.3104 13.1175V12.8335L60.2906 12.5264L60.2609 12.2027L60.2147 11.8593V11.7536L60.2741 11.3442L60.3467 10.9743L60.4524 10.5219L60.601 9.99022L60.7958 9.3859L61.0468 8.71224L61.3308 8.03857C62.4503 8.06499 63.5698 8.12443 64.6859 8.2202L64.894 8.92358L65.069 9.61376L65.2011 10.2379L65.2903 10.7828L65.3497 11.2385L65.3794 11.6215L65.3926 12.031L65.3827 12.1367L65.2969 12.4735L65.2341 12.7939L65.1846 13.0944L65.1516 13.3784L65.1317 13.6425L65.1218 13.8836V14.1082L65.1383 14.3129L65.1648 14.4945L65.1978 14.6563L65.2407 14.7983L65.2869 14.9139L65.3464 15.013L65.4091 15.0856L65.4719 15.1418L65.5445 15.1682L65.5842 15.1781L66.2875 15.2673L67.3377 15.4258L68.3878 15.6041L69.0813 15.7395H69.1209H69.1968L69.2761 15.7098L69.3554 15.6602L69.4412 15.5876L69.5271 15.4885L69.6063 15.3696L69.6922 15.2243L69.7714 15.0592L69.8474 14.871L69.92 14.6596L69.9894 14.4252L70.0521 14.1709L70.1017 13.8902L70.1512 13.5897L70.1908 13.2628L70.2172 12.9193L70.2437 12.817L70.3857 12.4306L70.5343 12.0806L70.7291 11.6645L70.9834 11.1757L71.3037 10.6243L71.6868 10.0232L72.1029 9.42223C73.1959 9.6765 74.2758 9.97041 75.349 10.2973L75.4084 11.0238L75.4382 11.7338V12.3778L75.4117 12.9259L75.3688 13.385L75.3226 13.7647L75.2499 14.1643L75.2169 14.2667L75.0683 14.5804L74.9395 14.8776L74.8239 15.1616L74.7315 15.4324L74.6555 15.6833L74.5961 15.9211L74.5531 16.1424L74.5267 16.3438L74.5102 16.5254V16.6905L74.5234 16.8391L74.5498 16.9613L74.5829 17.067L74.6291 17.1529L74.6852 17.2156L74.748 17.2585L74.781 17.275L75.4481 17.5095L76.442 17.8794L77.4327 18.2756L78.0833 18.5464L78.1163 18.5629L78.1923 18.5728L78.2781 18.5629L78.3673 18.5299L78.4663 18.4738L78.5687 18.3978L78.6777 18.2988L78.7867 18.1766L78.8956 18.0313L79.0112 17.8595L79.1268 17.668L79.2424 17.4501L79.358 17.2123L79.4669 16.9481L79.5759 16.6641L79.6816 16.3537L79.7806 16.0235L79.8269 15.931L80.0448 15.581L80.2628 15.2706L80.5435 14.9007L80.8935 14.478L81.3228 14.0025L81.8215 13.4906L82.3564 12.992C83.3702 13.4675 84.3642 13.9827 85.3483 14.5242L85.2558 15.2474L85.1369 15.9541L85.0015 16.575L84.8596 17.1099L84.7275 17.5524L84.5987 17.9091L84.4468 18.2888L84.3972 18.3813L84.1859 18.6587L83.9944 18.9229L83.8292 19.1772L83.6806 19.4248L83.5519 19.656L83.4462 19.8772L83.357 20.082L83.2877 20.2735L83.2381 20.4518L83.1985 20.6136L83.182 20.759V20.8877L83.1952 20.9967L83.2216 21.0892L83.2613 21.1651L83.3174 21.2213L83.3471 21.2378L83.9547 21.6076L84.8529 22.1789L85.7347 22.77L86.3159 23.1729L86.3456 23.1927L86.4182 23.2191L86.5041 23.2291L86.6032 23.2158L86.7088 23.1828L86.8244 23.1333L86.9532 23.0573L87.0853 22.9583L87.2273 22.8394L87.3759 22.6974L87.5278 22.5323L87.6863 22.3506L87.8481 22.1393L88.0099 21.9048L88.175 21.6506L88.3468 21.3699L88.5119 21.0628L88.5746 20.9769L88.8586 20.683L89.136 20.4221L89.486 20.1216L89.9186 19.7815L90.4338 19.4083L91.0282 19.012L91.6523 18.6323C92.5473 19.3126 93.4125 20.0192 94.2611 20.7556L94.0201 21.4458L93.7559 22.1063L93.495 22.6875L93.2473 23.1795L93.0228 23.5824L92.8279 23.9093L92.5968 24.2462L92.5241 24.3254L92.26 24.55L92.0189 24.7712L91.8009 24.9826L91.6061 25.1906L91.4344 25.3953L91.2825 25.5869L91.1537 25.7685L91.048 25.9402L90.9589 26.1053L90.8895 26.2539L90.8433 26.3893L90.8136 26.5181L90.8037 26.6271V26.7262L90.8334 26.8054L90.8763 26.8682L90.9027 26.8946L91.4179 27.3833L92.1741 28.1263L92.3656 28.3212L80.3387 40.3481C75.0716 34.9356 67.6382 31.64 59.4353 31.8546C44.4397 32.2476 32.2609 44.5783 32.0495 59.5772C31.825 75.3093 44.509 88.1287 60.1882 88.1287C74.4376 88.1287 86.2135 77.5416 88.0727 63.8041H105.178L105.145 64.2004V64.24L105.155 64.316L105.195 64.392L105.254 64.4679L105.334 64.5439L105.439 64.6165L105.568 64.6892L105.717 64.7585L105.892 64.8212L106.087 64.8774L106.305 64.9269L106.546 64.9699L106.806 65.0029L107.09 65.0293L107.398 65.0458H107.725L108.075 65.0425L108.177 65.0557L108.577 65.1548L108.936 65.2638L109.376 65.4157L109.888 65.6204L110.469 65.8813L111.106 66.2016L111.75 66.5516L111.743 66.5748Z" fill="white"/>
</svg>
